<svg width="93" height="185" viewBox="0 0 93 185" fill="none" xmlns="http://www.w3.org/2000/svg">
<path d="M7.99999 2.73332C1.99999 4.73332 1.33332 5.39999 0.933325 9.39999C0.533325 12.8667 1.59999 15.4 5.99999 21.1333C16.1333 34.6 24.8 36.3333 15.8667 23.1333C13.2 19.2667 11.4667 15.8 11.8667 15.4C13.3333 13.9333 29.0667 19 38.1333 23.8C64.8 37.8 83.0667 66.6 78.1333 86.6C76.4 93 74.5333 96.3333 72.5333 96.3333C71.8667 96.3333 69.3333 94.6 66.9333 92.3333C55.7333 82.6 41.2 80.3333 36.4 87.5333C32.9333 92.6 38.5333 105.133 46.5333 110.467C51.6 113.667 59.6 114.333 66.5333 111.933L72.6667 109.8L77.2 119.4C85.8667 137.4 88.1333 154.333 84 169.667C82.9333 173.667 82 178.733 82 181L82.1333 185L84.6667 181.933C87.8667 178.067 90.9333 168.2 92.1333 157.8C93.3333 147.267 89.8667 130.733 83.3333 115.933L78.1333 104.2L81.7333 97.4C96.2667 69.4 70.1333 25.9333 31.4667 13.6667C26.6667 12.0667 21.8667 10.4667 20.8 10.2C19.4667 9.8 20.1333 8.73332 23.2 6.86665C25.6 5.39999 27.3333 3.53332 26.9333 2.59999C26.1333 0.0666573 15.3333 0.199989 7.99999 2.73332ZM60 96.0667C66.4 100.6 66.9333 104.333 61.4667 105.8C55.4667 107.4 47.7333 103.667 44.6667 97.5333C41.4667 91.2667 41.4667 91.2667 44.4 90.7333C48 89.9333 54.2667 91.9333 60 96.0667Z" fill="black"/>
</svg>
